<?xml version="1.0" encoding="UTF-8" standalone="no"?>
<!-- Created with Inkscape (http://www.inkscape.org/) -->

<svg
   width="22.703136mm"
   height="21.53734mm"
   viewBox="0 0 22.703136 21.53734"
   version="1.1"
   id="svg1"
   xmlns="http://www.w3.org/2000/svg"
   xmlns:svg="http://www.w3.org/2000/svg">
  <defs
     id="defs1" />
  <g
     id="layer1"
     transform="translate(-81.198015,-120.94418)">
    <text
       xml:space="preserve"
       style="font-size:4.23333px;font-family:'Apercu Mono Pro';-inkscape-font-specification:'Apercu Mono Pro';fill:#000000;fill-opacity:1;stroke-width:0.973;stroke-dasharray:0.973, 0.973"
       x="81.100647"
       y="137.15599"
       id="text1-4"><tspan
         id="tspan1-8"
         style="fill:#000000;fill-opacity:1;stroke-width:0.973"
         x="81.100647"
         y="137.15599">Void</tspan><tspan
         style="fill:#000000;fill-opacity:1;stroke-width:0.973"
         x="81.100647"
         y="142.44765"
         id="tspan2-0">Printer</tspan></text>
    <path
       style="fill:#ffffff;fill-opacity:1;stroke-width:0.973;stroke-dasharray:0.973, 0.973"
       d="m 82.301822,131.19188 10.781432,-10.2477 10.567936,10.67469 -10.140948,10.56794 -10.748735,-10.93264 -0.122587,-0.24518 z"
       id="path2" />
    <path
       id="rect1"
       style="fill:#0a28ee;fill-opacity:1;stroke-width:0.749062;stroke-dasharray:0.749062, 0.749062"
       d="m 151.34414,19.737489 v 14.550529 h 5.70109 l -0.20098,-0.200974 0.71218,-0.712179 0.91315,0.913153 0.74799,3.66e-4 0.18307,-0.18307 0.18307,0.18307 h 4.6341 l -0.0457,-0.04568 0.40122,-0.401218 -0.45201,-0.452009 0.0928,-0.409987 0.61059,0.610596 0.52655,-0.526553 0.22765,0.227649 -0.52655,0.526553 0.47065,0.470645 h 1.03922 c 0.0121,-0.06341 0.0203,-0.130078 0.0197,-0.203898 l 0.0943,0.03727 v -1.130571 c -0.14388,-0.186231 -0.22549,-0.390004 -0.23824,-0.613154 -0.0144,-0.25468 0.0656,-0.481975 0.23824,-0.681851 V 19.737855 Z m 5.45809,13.170385 c 0.0579,-0.05787 0.12792,-0.08604 0.20974,-0.08404 0.0798,0 0.14895,0.02909 0.20682,0.08697 0.0579,0.05787 0.0866,0.126631 0.0866,0.206455 -0.002,0.07783 -0.032,0.146025 -0.0899,0.203898 -0.0579,0.05787 -0.12664,0.0866 -0.20646,0.0866 -0.0798,0 -0.14766,-0.0278 -0.20353,-0.08368 -0.0579,-0.05787 -0.087,-0.126996 -0.087,-0.206821 -0.002,-0.08182 0.0258,-0.151506 0.0837,-0.209378 z m 2.3408,-2.340801 0.25177,-0.251766 2.11936,2.119364 -0.25177,0.251766 -0.2006,-0.200609 c 0.018,0.11375 0.006,0.233472 -0.0354,0.359196 -0.0399,0.123727 -0.10681,0.232515 -0.20061,0.326309 -0.21552,0.215525 -0.45533,0.315233 -0.71875,0.299268 -0.26343,-0.01996 -0.51381,-0.148393 -0.75128,-0.38587 -0.23748,-0.237477 -0.36499,-0.48693 -0.38295,-0.748355 -0.018,-0.265416 0.0808,-0.506154 0.29635,-0.72168 0.0958,-0.09579 0.20457,-0.164547 0.3263,-0.206455 0.12174,-0.04191 0.23831,-0.0547 0.35007,-0.03873 z m 0.3771,1.251155 c -0.13969,0.139693 -0.2003,0.302228 -0.18234,0.48782 0.018,0.1816 0.10988,0.355435 0.27552,0.521071 0.16564,0.165635 0.3404,0.258484 0.52399,0.27844 0.1836,0.01597 0.34484,-0.04593 0.48453,-0.185627 0.1397,-0.139692 0.20103,-0.300372 0.18307,-0.481972 -0.018,-0.185592 -0.10988,-0.361283 -0.27551,-0.526918 -0.16564,-0.165636 -0.3404,-0.256629 -0.524,-0.272594 -0.18359,-0.01996 -0.34557,0.04009 -0.48526,0.17978 z m -2.43325,2.46979 h 0.8799 l -0.43995,-0.439951 z m 7.49488,3.66e-4 h 0.43849 L 164.801,34.069139 Z"
       transform="rotate(45)" />
  </g>
</svg>
